<svg width="109" height="99" viewBox="0 0 109 99" fill="none" xmlns="http://www.w3.org/2000/svg">
<path d="M34.0879 0.0583496C34.4948 -0.0816059 35.851 0.0580425 36.3936 0.197998C39.7842 1.31768 42.497 5.79601 43.582 12.3738C43.8533 13.4934 43.9893 14.8934 43.9893 15.3132V15.5925C44.0027 15.5856 44.267 15.4496 44.5312 15.3132C47.6507 13.4938 50.9062 12.5134 54.2969 12.5134C57.6874 12.5135 61.0778 13.4939 64.0615 15.3132C64.3328 15.5931 64.6045 15.5925 64.6045 15.5925V15.3132C64.6045 15.0333 64.8761 13.6334 65.0117 12.3738C66.2324 4.95647 69.4869 0.338462 73.4199 0.0583496C75.1831 -0.0816059 76.675 0.47813 78.0312 1.87769C79.7944 3.55715 81.1511 6.636 81.9648 10.4148C82.7786 14.7533 82.7786 20.3514 81.9648 24.8298V25.6697C81.9648 25.6697 82.2359 25.9494 82.6426 26.2292C83.9989 27.3489 85.491 28.889 86.4404 30.4285C86.8473 30.9883 87.2541 31.5483 87.5254 32.1082H94.8496C99.1896 32.1082 102.309 34.4868 102.31 40.5046V87.53H105.971C108.276 87.53 109.226 89.0699 108.955 90.4695C108.548 92.5687 106.378 95.9268 104.479 97.0466C103.53 97.7464 101.36 98.0271 100.546 98.0271H8.4541C7.64033 98.0271 5.60554 97.6065 4.52051 97.0466C2.62188 95.9268 0.451932 92.5687 0.0449219 90.4695C-0.226336 89.2099 0.723606 87.53 3.0293 87.53H6.55566V40.5046C6.55579 34.4869 9.67467 32.1082 14.0146 32.1082H21.3389C21.7457 31.5484 22.017 30.9883 22.4238 30.4285C23.5089 28.889 25.001 27.3489 26.2217 26.2292C26.4916 25.9508 26.8954 25.6724 26.8994 25.6697V24.8298C26.4926 22.8706 26.2217 19.7921 26.2217 17.8328C26.2217 15.8735 26.3567 13.4939 26.6279 11.6746C27.3061 6.91607 29.0693 3.13656 31.375 1.31714C32.1888 0.757317 33.1385 0.198305 34.0879 0.0583496ZM45.4805 91.0291C45.2093 91.0292 44.9386 91.3088 44.9385 91.5886V92.5681C44.9385 92.848 45.2093 93.1285 45.4805 93.1287H63.1123C63.3836 93.1287 63.6553 92.848 63.6553 92.5681V91.5886C63.6552 91.3088 63.3835 91.0291 63.1123 91.0291H45.4805ZM15.7783 38.406C13.8795 38.406 12.252 40.0853 12.252 42.0447V87.53H96.2061V42.0447C96.2061 40.0854 94.5784 38.4061 92.6797 38.406H15.7783ZM53.0762 50.8621C53.6192 50.8621 55.9235 51.0017 56.873 51.0017C63.7901 51.9814 69.4873 56.5999 70.708 62.6179C70.8436 63.4577 70.8438 63.8779 70.8438 65.1375C70.8437 66.3968 70.8436 66.8167 70.708 67.5164C70.5724 68.636 70.3003 69.3356 69.7578 70.3152C67.859 74.2339 63.655 77.0337 58.6367 77.5935C57.2804 77.7335 51.4481 77.7335 50.0918 77.5935C43.853 76.8936 39.1064 72.8346 37.8857 67.5164C37.7501 66.8167 37.75 66.5368 37.75 65.1375C37.75 63.7379 37.7501 63.4577 37.8857 62.6179C38.6996 58.5593 41.6833 54.9203 45.8877 52.821C47.1082 52.1214 48.7356 51.5619 50.0918 51.282C50.9056 51.142 51.4486 51.002 53.0762 50.8621ZM52.5332 55.3406C50.3633 55.6205 47.9223 56.46 46.1592 57.7195C44.5317 58.8391 42.9039 60.6585 42.3613 62.198C41.6833 63.4574 41.6826 64.9969 41.6826 65.8367C41.9539 67.6561 42.4971 68.9159 43.7178 70.1755C45.2097 71.715 47.2444 72.6948 49.8213 73.2546C50.4992 73.3945 51.042 73.3943 53.6182 73.3943L53.8896 73.6746C57.8228 73.6746 58.9078 73.5342 60.6709 72.9744C61.6203 72.5545 63.1129 71.8555 63.791 71.2957C65.2828 70.0362 66.3675 68.3565 66.7744 66.8171C66.91 65.6975 66.9102 65.2767 66.9102 64.5769C66.7745 63.1775 66.2318 61.9181 65.5537 60.7986C65.0112 59.819 63.5197 58.4193 62.5703 57.7195C60.6715 56.4599 58.3653 55.6205 56.0596 55.3406H52.5332ZM51.8555 60.9382C52.2623 60.9382 52.669 60.9389 53.6182 61.6384H53.8896C53.8898 61.7782 54.2969 61.6384 54.2969 61.6384C54.9748 61.2187 55.3815 61.0789 55.9238 61.0789C56.4663 61.0789 56.467 61.0786 56.7383 61.2185C57.5518 61.6385 57.9586 62.6182 57.5518 63.4578L57.8232 63.3181C57.6875 63.738 57.0091 64.4376 56.3311 64.7175C55.7885 64.9974 55.6526 65.2776 55.9238 66.3972C56.195 67.7965 55.9241 68.4962 55.2461 68.7761C54.9749 68.7761 54.8391 68.916 54.0254 68.7761C53.2116 68.7761 53.2117 68.7758 52.9404 68.4958C52.6692 68.216 52.2619 67.6567 52.2617 67.3767C52.2617 67.0969 52.262 66.8168 52.3975 66.3972C52.3975 65.9774 52.5331 65.4171 52.3975 65.2771C52.3975 64.9973 52.3977 64.9973 51.8555 64.7175C50.9062 64.1578 50.3633 63.458 50.2275 62.8982C50.2275 62.3385 50.4988 61.4988 51.041 61.0789C51.3123 61.0789 51.4486 60.9382 51.8555 60.9382ZM34.5156 56.9832C35.2527 56.6582 36.1144 56.9908 36.4424 57.7273C36.7707 58.4653 36.439 59.3302 35.7012 59.6589L35.1055 58.322L35.7002 59.6589L35.6943 59.6619C35.6917 59.663 35.6881 59.6642 35.6846 59.6658C35.6775 59.6689 35.6688 59.673 35.6582 59.6775C35.6366 59.6867 35.6071 59.6981 35.5713 59.7126C35.4993 59.7419 35.3987 59.7818 35.2725 59.8279C35.0202 59.9201 34.6624 60.0406 34.2168 60.1619C33.3278 60.4037 32.0735 60.6542 30.5986 60.696C29.1075 60.7383 27.8904 60.5349 27.0322 60.3132C26.6034 60.2025 26.2624 60.0869 26.0205 59.9949C25.8999 59.949 25.8032 59.9086 25.7324 59.8777C25.697 59.8622 25.667 59.8491 25.6445 59.8386C25.6333 59.8334 25.6232 59.8278 25.6152 59.824L25.5986 59.8152C25.6026 59.8061 25.6493 59.7065 26.1855 58.614L25.5977 59.8152C24.8723 59.4591 24.5727 58.5825 24.9287 57.8572C25.2849 57.1321 26.1625 56.8332 26.8877 57.1892C26.8918 57.191 26.8971 57.1933 26.9033 57.196C26.9328 57.2089 26.9859 57.2311 27.0605 57.2595C27.2105 57.3165 27.449 57.3977 27.7646 57.4792C28.3964 57.6424 29.3372 57.8046 30.5156 57.7712C31.7102 57.7374 32.7305 57.5329 33.4482 57.3376C33.8056 57.2404 34.0852 57.1468 34.2686 57.0798C34.3599 57.0465 34.4277 57.0194 34.4688 57.0027C34.4891 56.9944 34.5037 56.9881 34.5107 56.9851C34.5133 56.9841 34.5151 56.9834 34.5156 56.9832ZM71.8174 57.7273C72.1454 56.9907 73.008 56.658 73.7451 56.9832C73.7459 56.9834 73.7476 56.9841 73.75 56.9851C73.7571 56.9881 73.7716 56.9944 73.792 57.0027C73.8332 57.0195 73.901 57.0465 73.9922 57.0798C74.1755 57.1468 74.4542 57.2404 74.8115 57.3376C75.5294 57.533 76.5502 57.7374 77.7451 57.7712C78.9237 57.8046 79.8643 57.6424 80.4961 57.4792C80.8117 57.3977 81.0493 57.3165 81.1992 57.2595C81.2739 57.2311 81.3269 57.2089 81.3564 57.196C81.3629 57.1932 81.3688 57.1911 81.373 57.1892C82.0982 56.8334 82.9749 57.1322 83.3311 57.8572C83.6871 58.5825 83.3884 59.4591 82.6631 59.8152L82.0742 58.614C82.6145 59.7146 82.6588 59.8073 82.6621 59.8152L82.6152 59.8386C82.5928 59.849 82.5635 59.8623 82.5283 59.8777C82.4574 59.9087 82.3602 59.9489 82.2393 59.9949C81.9973 60.0869 81.6564 60.2025 81.2275 60.3132C80.3695 60.5348 79.1529 60.7382 77.6621 60.696C76.1873 60.6543 74.9329 60.4037 74.0439 60.1619C73.5981 60.0406 73.2397 59.9201 72.9873 59.8279C72.8612 59.7818 72.7604 59.7419 72.6885 59.7126C72.653 59.6982 72.6241 59.6867 72.6025 59.6775C72.5918 59.6729 72.5823 59.6689 72.5752 59.6658C72.572 59.6644 72.5689 59.6629 72.5664 59.6619L72.5605 59.6589L73.1553 58.322C73.267 58.0711 73.357 57.8665 73.4307 57.7009L72.5586 59.6589C71.821 59.3302 71.4893 58.4652 71.8174 57.7273ZM54.4326 18.1121C53.0766 18.1121 52.8048 18.2516 52.127 18.2517C50.2282 18.5316 48.3287 19.3713 46.7012 20.491C45.2093 21.4706 44.3957 22.1709 43.4463 23.4304C42.6326 24.41 42.3609 24.9697 41.9541 25.8093C41.5472 26.789 41.1401 27.3497 40.4619 27.6296C39.9196 27.7695 39.3768 27.9092 38.4277 27.7693H35.5801C32.7319 28.1892 30.0188 29.7289 27.9844 32.1082H81.0156C79.1169 30.0089 76.6755 28.4688 74.0986 27.9089C72.7424 27.629 71.657 27.629 70.3008 27.9089C69.3516 28.0489 68.809 28.049 68.2666 27.7693C67.5885 27.3495 67.1813 26.9295 66.7744 25.95C66.6388 25.5301 66.2314 25.1097 66.2314 24.8298C65.9599 24.1299 64.7398 22.7301 64.333 22.3103C62.1631 20.2112 59.4506 18.8116 56.7383 18.2517C56.0602 18.1118 55.7885 18.1121 54.4326 18.1121ZM35.1729 5.79565C34.7664 5.65583 34.7659 5.65594 34.4951 5.79565C33.4101 6.63538 32.3247 9.57477 31.7822 12.7937V12.9333C31.3753 15.8724 31.3753 19.3719 31.7822 22.4509C31.9178 23.0106 32.0537 23.0105 32.0537 23.0105C32.1897 23.0101 32.5964 22.7312 33.0029 22.7312C34.2236 22.3113 35.5801 22.1707 36.8008 22.1707H37.8857L38.292 21.4714L38.6992 20.7712V18.8123C38.6992 16.8529 38.5632 15.3127 38.292 13.7732C38.1565 13.3535 38.1562 12.9336 38.1562 12.7937C38.1562 12.5137 37.8857 11.9537 37.8857 11.5339C37.2076 8.87489 36.1222 6.63536 35.1729 5.79565ZM74.0986 5.79565C73.8274 5.51582 73.6911 5.51583 73.4199 5.79565C72.4705 6.49542 71.3862 8.87512 70.708 11.3943C70.1655 13.7734 69.8936 15.8727 69.8936 18.6716H70.0293V20.6316L70.4365 21.3308L70.8438 22.031H71.9287C73.2847 22.0311 74.5052 22.3107 75.7256 22.5906C76.1325 22.8705 76.6758 22.8708 76.6758 22.8708C76.9466 22.8708 76.9463 22.8698 76.9463 22.3103C77.6243 17.6921 77.2177 12.9341 76.1328 9.4353C75.5903 7.61588 74.7768 6.35548 74.0986 5.79565Z" fill="#C1C1C1" style="fill:#C1C1C1;fill:color(display-p3 0.7584 0.7584 0.7584);fill-opacity:1;"/>
</svg>
