<?xml version="1.0" encoding="UTF-8"?>
<svg id="_레이어_1" data-name="레이어_1" xmlns="http://www.w3.org/2000/svg" version="1.1" viewBox="0 0 800 800">
  <!-- Generator: Adobe Illustrator 29.5.1, SVG Export Plug-In . SVG Version: 2.1.0 Build 141)  -->
  <path d="M100,100h600c18.4,0,33.3,14.9,33.3,33.3v533.3c0,18.4-14.9,33.3-33.3,33.3H100c-18.4,0-33.3-14.9-33.3-33.3V133.3c0-18.4,14.9-33.3,33.3-33.3ZM133.3,166.7v466.7h533.3V166.7H133.3ZM233.3,516.7h-66.7v-233.3h66.7l66.7,66.7,66.7-66.7h66.7v233.3h-66.7v-133.3l-66.7,66.7-66.7-66.7v133.3ZM600,416.7h66.7l-100,100-100-100h66.7v-133.3h66.7v133.3Z"/>
</svg>