<?xml version="1.0" encoding="UTF-8"?>
<svg id="_레이어_1" data-name="레이어_1" xmlns="http://www.w3.org/2000/svg" version="1.1" viewBox="0 0 24 24">
  <!-- Generator: Adobe Illustrator 29.5.1, SVG Export Plug-In . SVG Version: 2.1.0 Build 141)  -->
  <path d="M21.4,18.8h-.6v-8.3c0-1.1-.6-1.5-1.4-1.5h-1.3c0-.1-.1-.2-.2-.3-.2-.3-.5-.6-.7-.7,0,0-.1-.1-.1-.1,0,0,0,0,0-.2.2-.8.1-1.8,0-2.5-.1-.7-.4-1.2-.7-1.5-.3-.2-.5-.3-.8-.3-.7,0-1.3.9-1.5,2.2,0,.2,0,.5,0,.5s0,0,0,0,0,0-.1,0c-.6-.3-1.2-.5-1.8-.5s-1.2.2-1.8.5c0,0-.1,0-.1,0s0,0,0,0c0,0,0-.3,0-.5-.2-1.2-.7-2-1.3-2.2,0,0-.3,0-.4,0h0c-.2,0-.4.1-.5.2-.4.3-.7,1-.9,1.8,0,.3,0,.8,0,1.1s0,.9.1,1.3c0,0,0,.1,0,.2,0,0,0,0-.1.1-.2.2-.5.5-.7.7,0,0-.1.2-.2.3h-1.3c-.8,0-1.4.4-1.4,1.5v8.3h-.6c-.4,0-.6.3-.6.5,0,.4.5,1,.8,1.2.2.1.6.2.7.2h16.9c.2,0,.5,0,.7-.2.3-.2.7-.8.8-1.2,0-.2-.1-.5-.6-.5ZM14.9,6.6c0-.5,0-.9.2-1.3.1-.5.3-.9.5-1,0,0,0,0,.1,0h0c.1,0,.3.3.4.6.2.6.3,1.5.2,2.3,0,.1,0,.1,0,.1,0,0,0,0-.2,0-.2,0-.5,0-.7,0h-.3c0-.1,0-.3,0-.3v-.3ZM7.9,5.6c0-.6.3-1.1.5-1.2,0,0,0,0,.1,0h0c.2.1.4.6.5,1,0,0,0,.2,0,.2,0,0,0,.1,0,.2,0,.3,0,.6,0,.9v.3h0c0,.1,0,.3,0,.3h-.2c-.2,0-.5,0-.7,0,0,0-.2,0-.2,0,0,0,0,0,0-.1,0-.6,0-1.2,0-1.7ZM8.5,8.2c.1,0,.4,0,.6,0,.2,0,.3,0,.4,0,.1,0,.2-.1.3-.3,0-.2.1-.2.3-.4.2-.2.3-.4.6-.5.3-.2.6-.3,1-.4.1,0,.2,0,.4,0s.3,0,.4,0c.5.1,1,.4,1.4.7,0,0,.3.3.4.4,0,0,0,.1,0,.2,0,.2.1.3.3.3.1,0,.2,0,.4,0,.2,0,.4,0,.7,0,.5,0,.9.4,1.3.8H7.1c.4-.4.9-.7,1.4-.8ZM4.3,10.8c0-.4.3-.6.6-.6h14.1c.4,0,.6.3.6.6v8.1H4.3v-8.1ZM13.7,19.7c0,0,0,.1-.1.1h-3.2c0,0-.1,0-.1-.1v-.2c0,0,0-.1.1-.1h3.2c0,0,.1,0,.1.1v.2Z"/>
  <path d="M14.8,15.8c0-.2.1-.3.2-.5,0-.1,0-.2,0-.4s0-.3,0-.4c-.2-1.1-1.3-1.9-2.5-2.1-.2,0-.6,0-.7,0h0c-.3,0-.4,0-.5,0-.2,0-.6.2-.8.3-.8.4-1.3,1-1.5,1.7,0,.1,0,.2,0,.4s0,.3,0,.4c.2,1,1.1,1.7,2.2,1.8.2,0,1.3,0,1.6,0,.9-.1,1.7-.6,2-1.3ZM11.9,16.3c-.5,0-.6,0-.7,0-.5,0-.8-.3-1.1-.6-.2-.2-.3-.4-.4-.8,0-.2,0-.4.1-.6.1-.3.4-.6.7-.8.3-.2.8-.4,1.2-.4.2,0,.5,0,.6,0h0c.4,0,.8.2,1.2.4.2.1.4.4.5.5.1.2.2.4.2.7,0,.1,0,.2,0,.4,0,.3-.3.6-.6.8-.1,0-.4.2-.6.3-.3.1-.5.1-1.3.1Z"/>
  <path d="M12.5,14.1s0,0-.1,0c-.1,0-.2,0-.3.1h0s0,0,0,0c-.2-.1-.2-.1-.3-.1s-.1,0-.2,0h0c-.1,0-.2.2-.2.3,0,.1.1.2.3.3,0,0,0,0,0,.1,0,0,0,.1,0,.2,0,0,0,.2,0,.2,0,0,0,.2.1.2,0,0,0,0,.2,0,.1,0,.2,0,.2,0,.1,0,.2-.2.1-.4,0-.2,0-.2,0-.3.1,0,.2-.2.3-.3,0-.1,0-.3-.1-.4Z"/>
  <path d="M8.4,12.5c-.1,0-.3,0-.4,0h0c-.3,0-.4.3-.5.5,0,.1,0,.3,0,.4,0,.3.3.5.5.5.3,0,.5,0,.7-.2.1-.1.2-.2.2-.4,0-.1,0-.1,0-.3v-.2h0c0-.3-.3-.5-.5-.5Z"/>
  <path d="M15.4,13.8c.2.2.4.2.7.2.2,0,.3-.2.4-.4,0-.1,0-.2,0-.4,0-.4-.3-.6-.6-.7,0,0-.3,0-.4,0h0c-.2,0-.4.2-.5.4h0v.3c0,.2,0,.2,0,.3,0,.2.1.3.2.4Z"/>
</svg>