<?xml version="1.0" encoding="UTF-8"?>
<svg id="_레이어_1" data-name="레이어_1" xmlns="http://www.w3.org/2000/svg" version="1.1" viewBox="0 0 512 512">
  <!-- Generator: Adobe Illustrator 29.5.1, SVG Export Plug-In . SVG Version: 2.1.0 Build 141)  -->
  <defs>
    <style>
      .st0 {
        fill: #939393;
      }
    </style>
  </defs>
  <path class="st0" d="M137,193.6c9.5-13.8,23-22.6,37.9-25,3.3-.6,9.6-.5,13.1.2,3.8.7,6.2.5,8.7-.7,3-1.4,4.6-3.2,6.3-7.3,1.6-3.7,2.8-5.6,6.1-9.8,4-5,7.8-8.3,13.9-12.3,7-4.6,15-7.9,22.9-9.5,2.9-.6,4.2-.7,9.6-.7s6.8,0,9.6.7c11.7,2.4,23.2,8.4,32.4,16.9,2,1.9,6.8,7.7,8.2,10.2.6,1,1.6,3,2.2,4.5,1.8,4.1,3.3,5.9,6.3,7.3,2.4,1.1,4.9,1.4,8.5.8,5.8-1,10.3-.9,16,.3,19.3,3.9,36.1,19.7,43.6,41h24.2c-2.8-10.9-7.5-21.1-14-30.3-4.3-6.1-10.6-12.9-16.1-17.3-1.6-1.3-3-2.4-3.1-2.6-.1,0,0-1.7.4-3.5,3.5-18.4,3.4-41.4-.3-59.4-3.2-15.7-9.1-28.1-16.6-35.3-6-5.7-12.1-8.1-19.5-7.7-16.9,1-30.5,20.4-35.9,51-.9,5-1.6,10.7-1.6,12.3s0,1.1-.3,1.1-1.3-.6-2.5-1.3c-13-7.7-27.5-11.8-41.6-11.8s-28.6,4.1-41.6,11.8c-1.2.7-2.4,1.3-2.5,1.3s-.3-.5-.3-1.1c0-1.6-.8-7.6-1.6-12.3-4.8-27.5-16-45.7-30.8-50.3-2-.6-7.9-1-9.9-.7h0c-3.8.6-8.3,2.6-11.6,5-9.7,7.4-17.2,23.1-20.4,42.6-1.2,7.4-2,17.6-2,25.5s1.1,21,2.6,29.2c.3,1.8.5,3.4.4,3.5,0,0-1.5,1.3-3.1,2.6-5.5,4.4-11.8,11.1-16.1,17.3-6.5,9.2-11.2,19.4-14,30.3h24c2-5.8,4.9-11.4,8.4-16.5ZM322.4,131.3c0-11.3,1.1-20.2,3.7-30,2.7-10.6,7.3-20.1,11.5-23.4,1.3-1,1.5-1.1,2.7-.2h0c2.9,2.1,6.1,7.8,8.4,15.1,4.8,14.5,6.1,34.4,3.6,53.3-.3,2.4-.4,2.6-1,2.4-.3,0-2.1-.6-4-1-5.2-1.4-10.7-2.1-16.2-2.1h-4.7l-2-3-2-3v-8.1ZM159.4,106.6c2.1-13.3,7-25.4,11.8-29,1.1-.9,1.3-.8,2.7.2h0c4.2,3.3,8.9,12.9,11.6,23.5.5,1.9,1,4.1,1.2,5,0,.8.4,2.6.7,4,1.1,6.2,1.7,12.9,1.7,21v8.1l-2,3-2,3h-4.7c-5.5,0-11,.7-16.2,2.1-1.9.5-3.7,1-4,1-.6,0-.6,0-1-2.4-1.7-13-1.6-27.4.3-39.3Z"/>
  <path class="st0" d="M460.4,424.4s0-177.9,0-202.9c0-25.1-13.5-34.7-31.8-34.7-18.3,0-327.6,0-345.9,0s-31.8,9.6-31.8,34.7v202.9h25.7v-196.5c0-8.3,6.8-15.1,15.1-15.1h328c8.3,0,15.1,6.8,15.1,15.1v196.5s25.7,0,25.7,0Z"/>
  <path class="st0" d="M475.5,415.7H35.8c-9.8,0-14.1,6.7-12.9,12.2,1.8,8.8,11.2,22.5,19.2,27.2,4.5,2.6,13.5,4,17,4h393.1c3.6,0,12.5-1.4,17-4,8.1-4.7,17.4-18.3,19.2-27.2,1.2-5.5-3.1-12.2-12.9-12.2ZM295.6,437.3c0,.9-.8,1.7-1.7,1.7h-76.5c-.9,0-1.7-.8-1.7-1.7v-5.2c0-.9.8-1.7,1.7-1.7h76.5c.9,0,1.7.8,1.7,1.7v5.2Z"/>
  <g>
    <path class="st0" d="M250.5,264.4c-7.2.7-9.1,1-12.5,1.7-5.6,1.1-13,3.7-18.2,6.2-18,8.8-30.4,23.5-34.2,40.4-.8,3.4-.9,4.5-.9,10.2s.1,6.8.8,10c5.1,22.2,25.5,38.6,51.9,41.6,5.8.6,30.6.6,36.3,0,21.2-2.4,39.5-13.9,47.7-30.1,2.2-4.3,3.2-7.1,4.2-11.5.7-3.2.8-4.4.8-10s-.1-6.8-.9-10.2c-5.5-24.7-29.4-44.1-58.8-47.8-3.8-.5-13.8-.9-16.4-.6h.1ZM262.8,282.3c9.8,1.1,19.6,4.6,27.5,9.8,4.2,2.9,10.3,8.8,12.8,12.6,3.2,4.8,5,9.7,5.8,15.7.4,2.7.2,4.8-.8,9.3-1.6,6.6-6.3,13.5-12.9,18.3-3,2.2-9.3,5.4-13.2,6.7-7.3,2.4-12.1,2.7-29.2,2.6-11.1-.1-13.1-.2-16.3-.8-10.9-2-19.6-6.4-25.8-13-5.1-5.3-7.4-10.2-8.7-18.1-.5-3.7.5-9.7,2.6-14.8,2.6-6.2,9.3-14,16-18.4,7.7-5.2,17.9-8.8,27.2-9.8,3.6-.4,11.2-.4,14.8,0h0Z"/>
    <path class="st0" d="M243.1,306.4c-2.5,1.3-4.2,4.8-3.7,7.3.6,2.7,3,5.5,6.8,7.8,2,1.2,2.2,1.4,2.3,2.6,0,.7-.2,2.8-.5,4.6-.4,1.8-.7,3.7-.7,4.2,0,1.4,1.3,3.7,2.7,4.8,1.2,1,1.5,1,4.9,1.1,3.1.1,3.8,0,5.1-.5,3.2-1.6,4-4.5,2.9-10.1-1-4.6-.8-5.4,1.7-6.8,2.6-1.5,5.4-4.2,6.2-6,1.6-3.4.1-7.4-3.4-9.2-.9-.4-1.9-.6-3.4-.6-2.4,0-4,.5-6.8,2.4l-1.6,1-1-.6c-4.2-2.5-4.9-2.7-7.5-2.7s-2.8.2-3.7.6h0Z"/>
    <path class="st0" d="M163,268.1c-5.9,1.8-10.2,6.1-12.4,12.2-1.1,2.9-1.6,7.5-1.1,10,1.1,5.9,5.9,11.3,11.5,12.7,6.9,1.8,12.1.6,16.7-3.9,2.7-2.6,4.1-4.9,5.6-8.6,1.1-2.6,1.1-3.1,1.1-6.8v-4l-1.3-2.9c-2.2-4.5-6.2-7.8-10.8-9-2.6-.6-6.8-.6-9.1.1h0Z"/>
    <path class="st0" d="M339.1,268c-4.5,1.2-8.6,4.6-10.7,9l-1.4,2.9v4c0,3.7.1,4.1,1.1,6.8,1.5,3.7,2.9,6,5.6,8.6,4.6,4.6,9.7,5.8,16.7,3.9,4-1.1,8-4.4,9.9-8.3,1.7-3.3,2-5.8,1.5-9.5-1.2-8.7-6.3-15-13.8-17.2-2.2-.6-6.5-.6-8.9,0h0Z"/>
  </g>
</svg>