<?xml version="1.0" encoding="UTF-8"?>
<svg id="_레이어_1" xmlns="http://www.w3.org/2000/svg" version="1.1" viewBox="0 0 854 854">
  <!-- Generator: Adobe Illustrator 29.5.1, SVG Export Plug-In . SVG Version: 2.1.0 Build 141)  -->
  <defs>
    <style>
      .st0 {
        fill: #ff9600;
      }

      .st1 {
        fill: #333;
      }
    </style>
  </defs>
  <path class="st1" d="M290.7,222.9c-6,1-13.1,4.1-18.2,7.9-15.2,11.6-27,36.2-32,66.8-1.9,11.6-3.1,27.6-3.1,40s1.7,32.9,4.1,45.7c.5,2.8.8,5.4.6,5.5-.1.1-2.4,2-4.9,4-8.6,6.9-18.5,17.5-25.2,27.1-13,18.5-21.4,39.4-24.9,62.2-1.3,9-1.7,27.1-.7,36.1,2.4,20.7,8.7,38.2,19.3,54.2l3.5,5.2-1,1.7c-7.2,12-13.2,29.4-16.1,46-2.2,13.2-2.5,16.7-2.5,34.4s.2,21.4,2.3,33.7c2.5,14.7,7.6,30.3,13.4,40.8,1.9,3.4,6.4,10.5,7,10.8.1,0-.4,1.8-1.3,3.7-6.6,14.4-12.3,33.6-14.6,49.8-1.6,11.1-1.9,14.6-1.9,26.3s.8,22.1,4,34l.4,1.7h39.2l-1.3-2.4c-7.9-14.6-8.7-41.8-1.9-69,3.1-12.5,6.6-21.7,13.2-34.4l4-7.7v-4.7c0-4.4,0-4.9-1.5-7.8-1.1-2.2-2.5-4.1-5.2-6.6-4.4-4.3-7.6-8.8-10.2-14.4-11.3-24.4-13.4-60.7-5.5-91.7,3.3-12.9,8.7-24.4,14.5-30.7,3.9-4.3,5.9-9.1,5.9-14.1s-1.9-9.4-6-13.9c-11.8-12.6-19.1-28-21.7-45.9-3.7-25.5,3-53.3,18.3-75.3,14.9-21.6,36-35.5,59.5-39.2,5.2-.9,15.1-.7,20.6.3,6,1,9.8.7,13.6-1.1,4.8-2.2,7.2-5,9.9-11.4,2.5-5.8,4.4-8.8,9.6-15.3,6.2-7.8,12.3-13,21.8-19.3,11-7.2,23.5-12.4,35.9-14.9,4.6-.9,6.6-1,15.1-1s10.6.1,15.1,1c18.3,3.7,36.4,13.1,50.9,26.5,3.1,2.9,10.6,12.1,12.9,16,.9,1.5,2.5,4.7,3.5,7.1,2.8,6.4,5.2,9.2,9.9,11.4,3.7,1.8,7.6,2.2,13.4,1.2,9.1-1.6,16.1-1.4,25,.4,30.4,6.1,56.8,31.1,68.6,64.8,10.2,29.4,7.3,60.3-7.8,83.8-2.5,4-5.2,7.2-8.8,11.1-8,8.6-8,19.2,0,28,13.1,14.3,21.3,49.6,18.8,80.7-1.6,20.5-6.9,38.8-14.1,49.3-1.3,1.9-4,4.9-6,6.9-2.6,2.5-4.1,4.4-5.2,6.6-1.4,2.9-1.5,3.4-1.5,7.8v4.7l4,7.7c6.6,12.7,10.1,21.9,13.2,34.4,6.7,26.8,6.1,53.4-1.6,68.6-.7,1.3-1.2,2.5-1.2,2.6s8.7.2,19.5.2h19.4l.5-1.9c.3-1,.7-2.7,1-3.6.5-2,1.5-8,2.3-13.7.7-5.8.7-27,0-33.5-2.9-23.2-7.8-41.7-15.8-59.2-.9-1.9-1.4-3.7-1.3-3.7.2,0,1.5-1.9,2.9-4,10-15.1,16.1-34.1,19.2-59.2.8-6.9.8-36.6,0-43.3-2.2-17.1-4.9-28.8-9.3-40.6-1.9-4.9-6.7-15.2-8.7-18.6l-1-1.7,3.5-5.2c10.7-16.1,16.9-33.5,19.3-54.2,1.1-9,.7-27.1-.7-36.1-3.6-22.8-12-43.6-24.9-62.2-6.8-9.6-16.7-20.2-25.2-27.1-2.5-2-4.8-3.8-4.9-4-.2-.1,0-2.7.6-5.5,5.5-28.9,5.4-64.9-.4-93.1-5-24.6-14.2-44.1-26-55.4-9.4-8.9-19-12.8-30.6-12-26.4,1.6-47.8,32-56.2,80-1.3,7.8-2.5,16.8-2.5,19.3s-.1,1.7-.4,1.7-2-.9-4-2.1c-20.4-12.1-43.1-18.5-65.3-18.5s-44.8,6.4-65.3,18.5c-1.9,1.1-3.7,2.1-4,2.1s-.4-.7-.4-1.7c0-2.5-1.3-11.9-2.5-19.3-7.5-43.1-25-71.6-48.3-78.8-3.2-1-12.3-1.6-15.5-1.1h0v-.2ZM298.6,260.1c6.6,5.2,13.9,20.2,18.2,36.8.7,3,1.6,6.5,1.9,7.8.1,1.3.7,4,1.1,6.2,1.8,9.7,2.6,20.2,2.7,32.9v12.6l-3.1,4.7-3.1,4.7h-7.4c-8.6,0-17.2,1.1-25.4,3.3-2.9.7-5.8,1.5-6.3,1.6-.9.1-1,0-1.5-3.8-2.7-20.4-2.5-43,.4-61.7,3.3-20.9,11-39.9,18.5-45.5,1.8-1.3,2.1-1.3,4.2.4h-.2ZM559.7,259.8c4.6,3.4,9.6,12.3,13.2,23.6,7.5,22.7,9.6,53.9,5.6,83.6-.5,3.7-.7,4-1.5,3.8-.5-.1-3.4-.9-6.3-1.6-8.2-2.2-16.7-3.3-25.4-3.3h-7.4l-3.1-4.7-3.1-4.7v-12.6c0-17.8,1.8-31.7,5.8-47.1,4.2-16.6,11.5-31.5,18.1-36.8,2.1-1.6,2.4-1.7,4.2-.3h0Z"/>
  <path class="st1" d="M419.9,490.3c-9.9,1-12.6,1.3-17.4,2.3-7.8,1.6-18.1,5.2-25.2,8.7-25,12.3-42.2,32.6-47.5,56.2-1,4.7-1.2,6.2-1.2,14.1s.1,9.5,1.1,13.9c7,30.9,35.4,53.6,72.1,57.7,8,.9,42.4.9,50.3,0,29.5-3.4,54.8-19.3,66.3-41.8,3-6,4.5-9.9,5.8-16,1-4.4,1.1-6.1,1.1-13.9s0-9.4-1.2-14.1c-7.6-34.3-40.9-61.3-81.6-66.3-5.3-.7-19.2-1.2-22.7-.8h.1ZM437,515.2c13.6,1.5,27.3,6.3,38.2,13.7,5.9,4,14.3,12.2,17.8,17.6,4.4,6.6,6.9,13.5,8.1,21.8.5,3.8.2,6.7-1.1,12.8-2.2,9.2-8.8,18.7-17.9,25.4-4.2,3.1-12.9,7.5-18.3,9.3-10.2,3.3-16.8,3.8-40.6,3.7-15.5,0-18.2-.3-22.6-1.1-15.2-2.8-27.2-8.9-35.9-18.1-7-7.4-10.2-14.2-12-25.2-.7-5.1.7-13.5,3.7-20.6,3.6-8.7,12.9-19.4,22.2-25.6,10.7-7.2,24.8-12.3,37.8-13.6,5-.5,15.5-.5,20.5,0h0Z"/>
  <path class="st1" d="M409.5,548.6c-3.5,1.9-5.9,6.6-5.2,10.2.8,3.8,4.2,7.6,9.4,10.8,2.8,1.7,3,1.9,3.1,3.6,0,1-.3,3.9-.7,6.4-.5,2.5-1,5.2-1,5.9,0,1.9,1.9,5.2,3.8,6.7,1.7,1.3,2,1.4,6.8,1.6,4.3,0,5.3,0,7-.7,4.5-2.2,5.6-6.2,4-14-1.3-6.4-1.1-7.5,2.3-9.4,3.6-2.1,7.5-5.8,8.6-8.4,2.2-4.8.1-10.2-4.7-12.8-1.2-.6-2.7-.9-4.8-.9-3.4,0-5.5.7-9.4,3.3l-2.2,1.4-1.4-.9c-5.8-3.4-6.9-3.8-10.4-3.8s-3.9.2-5.2.9h0Z"/>
  <path class="st1" d="M298.3,495.5c-8.1,2.5-14.1,8.5-17.3,17-1.5,4-2.2,10.4-1.6,13.8,1.5,8.2,8.2,15.7,15.9,17.7,9.6,2.5,16.8.9,23.2-5.5,3.7-3.6,5.8-6.8,7.8-11.9,1.5-3.6,1.6-4.3,1.6-9.4v-5.5l-1.9-4c-3.1-6.2-8.6-10.8-15-12.5-3.6-.9-9.4-.9-12.6.1h0v.2Z"/>
  <path class="st1" d="M542.9,495.4c-6.3,1.7-11.9,6.3-14.9,12.5l-1.9,4v5.5c0,5.2,0,5.8,1.6,9.4,2,5.2,4,8.3,7.8,11.9,6.3,6.3,13.5,8,23.2,5.5,5.5-1.5,11.1-6.1,13.7-11.6,2.3-4.6,2.8-8,2.1-13.2-1.7-12-8.7-20.8-19.2-23.8-3.1-.9-9-.9-12.4,0h0v-.2Z"/>
  <g id="Regular-S">
    <path class="st0" d="M427.9,195.9c-11.2,0-17.3-5.6-17.3-17v-1.2c0-19.6,11-29.6,24-38.7,16.1-11.4,24.5-17,24.5-29.9s-10.5-22.9-26.4-22.9-18.9,4-27.1,14.2l-4,4.9c-4.2,4.7-8.9,8.2-16.1,8.2s-14.7-5.1-14.7-14.7.7-6.8,1.9-10c5.8-16.8,27.8-31.7,61.4-31.7s62.8,16.8,62.8,50.4-14.5,35-32.4,46.9c-12.8,8.2-19.1,14.7-19.1,25.2v1.2c0,8.6-6.5,15.2-17.5,15.2h0ZM427.5,254.1c-11.9,0-22.4-9.3-22.4-21.2s10.3-21.2,22.4-21.2,22.2,9.3,22.2,21.2-10.5,21.2-22.2,21.2Z"/>
  </g>
</svg>