<?xml version="1.0" encoding="UTF-8"?>
<svg id="_레이어_1" data-name="레이어_1" xmlns="http://www.w3.org/2000/svg" version="1.1" viewBox="0 0 646 854">
  <!-- Generator: Adobe Illustrator 29.5.0, SVG Export Plug-In . SVG Version: 2.1.0 Build 137)  -->
  <defs>
    <style>
      .st0 {
        fill: #7c7c7c;
      }
    </style>
  </defs>
  <path class="st0" d="M140.6.2c-8,1.3-17.5,5.5-24.3,10.6-20.4,15.5-36.2,48.4-42.9,89.4-2.5,15.5-4.2,37-4.2,53.5s2.3,44.1,5.5,61.2c.7,3.8,1.1,7.2.8,7.4-.2.2-3.2,2.7-6.6,5.4-11.5,9.2-24.7,23.4-33.8,36.3-17.4,24.7-28.7,52.8-33.4,83.2-1.8,12-2.3,36.3-.9,48.3,3.2,27.7,11.6,51.1,25.9,72.6l4.7,6.9-1.3,2.3c-9.6,16.1-17.7,39.3-21.5,61.6-3,17.7-3.4,22.4-3.4,46s.3,28.6,3.1,45.1c3.4,19.7,10.2,40.6,17.9,54.6,2.5,4.5,8.6,14,9.4,14.5.2.1-.5,2.4-1.7,5-8.8,19.3-16.4,45-19.5,66.6-2.2,14.8-2.5,19.6-2.5,35.2s1.1,29.6,5.3,45.5l.6,2.3h52.5l-1.7-3.2c-10.6-19.6-11.6-56-2.5-92.4,4.2-16.8,8.9-29.1,17.7-46.1l5.3-10.3v-6.3c0-5.9-.1-6.6-2-10.4-1.5-2.9-3.4-5.5-6.9-8.9-5.9-5.8-10.2-11.8-13.7-19.3-15.1-32.7-18-81.3-7.4-122.8,4.4-17.3,11.7-32.7,19.4-41.1,5.2-5.8,7.9-12.2,7.9-18.9s-2.5-12.6-8-18.6c-15.8-16.9-25.6-37.5-29.1-61.5-5-34.1,4-71.4,24.5-100.8,20-28.9,48.2-47.5,79.6-52.5,7-1.2,20.2-1,27.6.4,8,1.4,13.1,1,18.2-1.5,6.4-3,9.6-6.7,13.3-15.3,3.3-7.7,5.9-11.8,12.8-20.5,8.3-10.4,16.4-17.4,29.2-25.9,14.7-9.6,31.4-16.6,48.1-20,6.1-1.2,8.9-1.4,20.2-1.4s14.2.2,20.2,1.4c24.5,5,48.7,17.6,68.1,35.5,4.2,3.9,14.2,16.2,17.3,21.4,1.2,2,3.4,6.3,4.7,9.5,3.7,8.6,6.9,12.3,13.3,15.3,5,2.4,10.2,2.9,17.9,1.6,12.2-2.1,21.6-1.9,33.5.6,40.7,8.2,76.1,41.7,91.8,86.7,13.7,39.4,9.8,80.7-10.5,112.2-3.4,5.3-6.9,9.6-11.8,14.9-10.7,11.5-10.7,25.7,0,37.5,17.5,19.2,28.5,66.4,25.2,108-2.2,27.5-9.3,52-18.9,66-1.7,2.5-5.3,6.6-8,9.2-3.5,3.4-5.5,5.9-6.9,8.9-1.9,3.9-2,4.5-2,10.4v6.3l5.3,10.3c8.8,17,13.5,29.3,17.7,46.1,9,35.9,8.2,71.5-2.1,91.8-.9,1.7-1.6,3.3-1.6,3.5s11.7.3,26.1.3h26l.7-2.6c.4-1.4,1-3.6,1.3-4.8.7-2.7,2-10.7,3.1-18.3,1-7.7,1-36.2,0-44.8-3.9-31.1-10.5-55.8-21.2-79.2-1.2-2.6-1.9-4.9-1.7-5,.3-.2,2-2.6,3.9-5.4,13.4-20.2,21.6-45.7,25.7-79.3,1.1-9.3,1.1-49,0-57.9-2.9-22.9-6.5-38.5-12.4-54.3-2.5-6.6-9-20.4-11.7-24.9l-1.3-2.3,4.7-6.9c14.3-21.5,22.6-44.9,25.9-72.6,1.5-12,1-36.3-.9-48.3-4.8-30.5-16-58.4-33.4-83.2-9.1-12.9-22.3-27.1-33.8-36.3-3.4-2.7-6.4-5.1-6.6-5.4-.3-.2,0-3.6.8-7.4,7.4-38.7,7.2-86.9-.6-124.6-6.7-32.9-19-59-34.8-74.1C523.2,4.3,510.3-.9,494.9.1c-35.4,2.1-64,42.8-75.3,107.1-1.8,10.4-3.4,22.5-3.4,25.8s-.2,2.3-.6,2.3-2.7-1.2-5.3-2.8c-27.3-16.2-57.7-24.8-87.4-24.8s-60,8.6-87.4,24.8c-2.6,1.5-5,2.8-5.3,2.8s-.6-1-.6-2.3c0-3.4-1.7-15.9-3.4-25.8C216.2,49.5,192.7,11.3,161.5,1.7c-4.3-1.3-16.5-2.1-20.8-1.5ZM151.1,50.1c8.8,7,18.6,27,24.3,49.3,1,4,2.1,8.7,2.5,10.4.2,1.7.9,5.4,1.5,8.3,2.4,13,3.5,27,3.6,44.1v16.9c0,0-4.2,6.3-4.2,6.3l-4.2,6.3h-9.9c-11.5,0-23,1.5-34,4.4-3.9,1-7.7,2-8.5,2.1-1.2.2-1.3-.1-2-5.1-3.6-27.3-3.4-57.5.6-82.6,4.4-28,14.7-53.4,24.8-60.9,2.4-1.8,2.8-1.7,5.6.5ZM500.6,49.7c6.1,4.5,12.8,16.4,17.7,31.6,10,30.4,12.8,72.2,7.5,111.9-.7,5-.9,5.4-2,5.1-.7-.2-4.5-1.2-8.5-2.1-11-2.9-22.4-4.4-34-4.4h-9.9l-4.2-6.3-4.2-6.3v-16.9c.2-23.8,2.4-42.4,7.7-63,5.6-22.2,15.4-42.2,24.2-49.2,2.8-2.2,3.2-2.3,5.6-.4Z"/>
  <path class="st0" d="M313.5,358.2c-13.3,1.3-16.9,1.8-23.3,3.1-10.4,2.1-24.2,6.9-33.8,11.6-33.5,16.4-56.5,43.6-63.6,75.2-1.4,6.3-1.6,8.3-1.6,18.9s.2,12.7,1.5,18.6c9.4,41.3,47.4,71.7,96.5,77.3,10.7,1.2,56.8,1.2,67.4,0,39.5-4.5,73.4-25.9,88.7-55.9,4-8,6-13.2,7.8-21.4,1.3-5.9,1.5-8.2,1.5-18.6s-.2-12.6-1.6-18.9c-10.2-45.9-54.7-82-109.3-88.8-7.1-.9-25.7-1.6-30.4-1.1ZM336.4,391.6c18.2,2,36.5,8.5,51.2,18.3,7.9,5.3,19.1,16.3,23.8,23.5,5.9,8.9,9.3,18.1,10.8,29.2.7,5.1.3,9-1.5,17.2-2.9,12.3-11.8,25.1-23.9,34-5.6,4.1-17.3,10.1-24.5,12.4-13.6,4.4-22.5,5.1-54.3,4.9-20.7-.2-24.4-.4-30.3-1.5-20.3-3.8-36.4-11.9-48-24.2-9.4-9.9-13.7-19-16.1-33.7-1-6.8.9-18.1,4.9-27.6,4.8-11.6,17.3-26,29.7-34.3,14.3-9.6,33.2-16.4,50.6-18.2,6.7-.7,20.8-.7,27.5,0Z"/>
  <path class="st0" d="M299.6,436.3c-4.7,2.5-7.9,8.9-6.9,13.6,1.1,5.1,5.6,10.2,12.6,14.5,3.7,2.3,4,2.6,4.2,4.8.1,1.3-.4,5.2-1,8.6-.7,3.4-1.3,6.9-1.3,7.9,0,2.6,2.5,6.9,5.1,9,2.3,1.8,2.7,1.9,9.1,2.1,5.8.2,7.1,0,9.4-1,6-2.9,7.5-8.3,5.3-18.7-1.8-8.6-1.5-10,3.1-12.6,4.8-2.8,10-7.8,11.5-11.2,2.9-6.4.2-13.7-6.3-17.1-1.6-.8-3.6-1.2-6.4-1.2-4.5,0-7.4,1-12.6,4.4l-3,1.9-1.9-1.2c-7.8-4.6-9.2-5.1-13.9-5.1-3.4,0-5.2.3-6.9,1.2Z"/>
  <path class="st0" d="M150.7,365.2c-10.9,3.4-18.9,11.4-23.1,22.7-2,5.4-3,13.9-2.1,18.5,2,11,11,21,21.3,23.7,12.9,3.4,22.5,1.2,31-7.3,5-4.8,7.7-9.1,10.4-15.9,2-4.8,2.1-5.7,2.1-12.6v-7.4c0,0-2.5-5.3-2.5-5.3-4.1-8.3-11.5-14.5-20.1-16.8-4.8-1.2-12.6-1.2-16.9.2Z"/>
  <path class="st0" d="M478.2,365c-8.4,2.3-15.9,8.5-19.9,16.7l-2.6,5.3v7.4c0,6.9.2,7.7,2.1,12.6,2.7,6.9,5.4,11.1,10.4,15.9,8.5,8.5,18.1,10.7,31,7.3,7.4-2,14.8-8.2,18.4-15.5,3.1-6.2,3.8-10.7,2.8-17.7-2.3-16.1-11.7-27.8-25.7-31.9-4.1-1.2-12.1-1.2-16.6,0Z"/>
</svg>